<svg xmlns="http://www.w3.org/2000/svg" width="820" height="220" viewBox="0 0 820 220">
  <defs>
    <clipPath id="core-lang-bar-light">
      <rect x="36" y="74" width="748" height="14" rx="7" ry="7"/>
    </clipPath>
  </defs>
  <rect x="0.5" y="0.5" width="819" height="219" rx="14" fill="#ffffff" stroke="#d0d7de"/>
  <text x="36" y="34" font-family="Georgia, Times New Roman, serif" font-size="24" fill="#0969da">Core Repository Languages</text>
  <text x="36" y="54" font-family="-apple-system, BlinkMacSystemFont, Segoe UI, sans-serif" font-size="11" fill="#57606a">owned public non-fork repositories · GitHub language bytes</text>
  <rect x="36" y="74" width="748" height="14" rx="7" fill="#f6f8fa" stroke="#d0d7de"/>
  <g clip-path="url(#core-lang-bar-light)">
    <rect x="36.00" y="74" width="449.43" height="14" fill="#3572A5"/>
    <rect x="485.43" y="74" width="151.78" height="14" fill="#76B900"/>
    <rect x="637.21" y="74" width="66.70" height="14" fill="#f34b7d"/>
    <rect x="703.91" y="74" width="61.39" height="14" fill="#f1e05a"/>
    <rect x="765.30" y="74" width="15.58" height="14" fill="#89e051"/>
    <rect x="780.88" y="74" width="3.12" height="14" fill="#8b949e"/>
  </g>
  <circle cx="55" cy="122" r="6.5" fill="#3572A5"/>
  <text x="72" y="128" font-family="-apple-system, BlinkMacSystemFont, Segoe UI, sans-serif" font-size="15" font-weight="600" fill="#24292f">Python</text>
  <text x="174" y="128" font-family="-apple-system, BlinkMacSystemFont, Segoe UI, sans-serif" font-size="14" fill="#57606a">60.1%</text>
  <circle cx="307" cy="122" r="6.5" fill="#76B900"/>
  <text x="324" y="128" font-family="-apple-system, BlinkMacSystemFont, Segoe UI, sans-serif" font-size="15" font-weight="600" fill="#24292f">CUDA</text>
  <text x="426" y="128" font-family="-apple-system, BlinkMacSystemFont, Segoe UI, sans-serif" font-size="14" fill="#57606a">20.3%</text>
  <circle cx="555" cy="122" r="6.5" fill="#f34b7d"/>
  <text x="572" y="128" font-family="-apple-system, BlinkMacSystemFont, Segoe UI, sans-serif" font-size="15" font-weight="600" fill="#24292f">C++</text>
  <text x="674" y="128" font-family="-apple-system, BlinkMacSystemFont, Segoe UI, sans-serif" font-size="14" fill="#57606a">8.9%</text>
  <circle cx="55" cy="162" r="6.5" fill="#f1e05a"/>
  <text x="72" y="168" font-family="-apple-system, BlinkMacSystemFont, Segoe UI, sans-serif" font-size="15" font-weight="600" fill="#24292f">JavaScript</text>
  <text x="174" y="168" font-family="-apple-system, BlinkMacSystemFont, Segoe UI, sans-serif" font-size="14" fill="#57606a">8.2%</text>
  <circle cx="307" cy="162" r="6.5" fill="#89e051"/>
  <text x="324" y="168" font-family="-apple-system, BlinkMacSystemFont, Segoe UI, sans-serif" font-size="15" font-weight="600" fill="#24292f">Shell</text>
  <text x="426" y="168" font-family="-apple-system, BlinkMacSystemFont, Segoe UI, sans-serif" font-size="14" fill="#57606a">2.1%</text>
  <circle cx="555" cy="162" r="6.5" fill="#8b949e"/>
  <text x="572" y="168" font-family="-apple-system, BlinkMacSystemFont, Segoe UI, sans-serif" font-size="15" font-weight="600" fill="#24292f">Other</text>
  <text x="674" y="168" font-family="-apple-system, BlinkMacSystemFont, Segoe UI, sans-serif" font-size="14" fill="#57606a">0.4%</text>
  <text x="36" y="204" font-family="-apple-system, BlinkMacSystemFont, Segoe UI, sans-serif" font-size="10" fill="#57606a">Repos counted: 5 · Forks, archived repositories, and the profile repository are excluded.</text>
</svg>