<svg xmlns="http://www.w3.org/2000/svg" width="820" height="220" viewBox="0 0 820 220">
  <defs>
    <clipPath id="core-lang-bar-dark">
      <rect x="36" y="74" width="748" height="14" rx="7" ry="7"/>
    </clipPath>
  </defs>
  <rect x="0.5" y="0.5" width="819" height="219" rx="14" fill="#0d1117" stroke="#30363d"/>
  <text x="36" y="34" font-family="Georgia, Times New Roman, serif" font-size="24" fill="#58a6ff">Core Repository Languages</text>
  <text x="36" y="54" font-family="-apple-system, BlinkMacSystemFont, Segoe UI, sans-serif" font-size="11" fill="#8b949e">owned public non-fork repositories · GitHub language bytes</text>
  <rect x="36" y="74" width="748" height="14" rx="7" fill="#161b22" stroke="#30363d"/>
  <g clip-path="url(#core-lang-bar-dark)">
    <rect x="36.00" y="74" width="449.43" height="14" fill="#3572A5"/>
    <rect x="485.43" y="74" width="151.78" height="14" fill="#76B900"/>
    <rect x="637.21" y="74" width="66.70" height="14" fill="#f34b7d"/>
    <rect x="703.91" y="74" width="61.39" height="14" fill="#f1e05a"/>
    <rect x="765.30" y="74" width="18.70" height="14" fill="#8b949e"/>
  </g>
  <circle cx="55" cy="122" r="6.5" fill="#3572A5"/>
  <text x="72" y="128" font-family="-apple-system, BlinkMacSystemFont, Segoe UI, sans-serif" font-size="15" font-weight="600" fill="#c9d1d9">Python</text>
  <text x="174" y="128" font-family="-apple-system, BlinkMacSystemFont, Segoe UI, sans-serif" font-size="14" fill="#8b949e">60.1%</text>
  <circle cx="307" cy="122" r="6.5" fill="#76B900"/>
  <text x="324" y="128" font-family="-apple-system, BlinkMacSystemFont, Segoe UI, sans-serif" font-size="15" font-weight="600" fill="#c9d1d9">CUDA</text>
  <text x="426" y="128" font-family="-apple-system, BlinkMacSystemFont, Segoe UI, sans-serif" font-size="14" fill="#8b949e">20.3%</text>
  <circle cx="555" cy="122" r="6.5" fill="#f34b7d"/>
  <text x="572" y="128" font-family="-apple-system, BlinkMacSystemFont, Segoe UI, sans-serif" font-size="15" font-weight="600" fill="#c9d1d9">C++</text>
  <text x="674" y="128" font-family="-apple-system, BlinkMacSystemFont, Segoe UI, sans-serif" font-size="14" fill="#8b949e">8.9%</text>
  <circle cx="55" cy="162" r="6.5" fill="#f1e05a"/>
  <text x="72" y="168" font-family="-apple-system, BlinkMacSystemFont, Segoe UI, sans-serif" font-size="15" font-weight="600" fill="#c9d1d9">JavaScript</text>
  <text x="174" y="168" font-family="-apple-system, BlinkMacSystemFont, Segoe UI, sans-serif" font-size="14" fill="#8b949e">8.2%</text>
  <circle cx="307" cy="162" r="6.5" fill="#8b949e"/>
  <text x="324" y="168" font-family="-apple-system, BlinkMacSystemFont, Segoe UI, sans-serif" font-size="15" font-weight="600" fill="#c9d1d9">Other</text>
  <text x="426" y="168" font-family="-apple-system, BlinkMacSystemFont, Segoe UI, sans-serif" font-size="14" fill="#8b949e">2.5%</text>
  <text x="36" y="204" font-family="-apple-system, BlinkMacSystemFont, Segoe UI, sans-serif" font-size="10" fill="#8b949e">Repos counted: 5 · Forks, archived repositories, and the profile repository are excluded.</text>
</svg>