<svg xmlns="http://www.w3.org/2000/svg" width="510" height="250" viewBox="0 0 510 250">
  <defs>
    <clipPath id="core-lang-bar-light">
      <rect x="30" y="84" width="450" height="12" rx="6" ry="6"/>
    </clipPath>
  </defs>
  <rect x="0.5" y="0.5" width="509" height="249" rx="12" fill="#ffffff" stroke="#d0d7de"/>
  <text x="30" y="34" font-family="Georgia, Times New Roman, serif" font-size="21" fill="#0969da">Core Repository Languages</text>
  <text x="30" y="52" font-family="-apple-system, BlinkMacSystemFont, Segoe UI, sans-serif" font-size="10" fill="#57606a">owned public non-fork repositories · GitHub language bytes</text>
  <rect x="30" y="84" width="450" height="12" rx="6" fill="#f6f8fa" stroke="#d0d7de"/>
  <g clip-path="url(#core-lang-bar-light)">
    <rect x="30.00" y="84" width="270.38" height="12" fill="#3572A5"/>
    <rect x="300.38" y="84" width="91.31" height="12" fill="#76B900"/>
    <rect x="391.69" y="84" width="40.13" height="12" fill="#f34b7d"/>
    <rect x="431.82" y="84" width="36.93" height="12" fill="#f1e05a"/>
    <rect x="468.75" y="84" width="9.37" height="12" fill="#89e051"/>
    <rect x="478.12" y="84" width="1.88" height="12" fill="#8b949e"/>
  </g>
  <circle cx="40" cy="129" r="5.5" fill="#3572A5"/>
  <text x="54" y="134" font-family="-apple-system, BlinkMacSystemFont, Segoe UI, sans-serif" font-size="13" font-weight="600" fill="#24292f">Python</text>
  <text x="138" y="134" font-family="-apple-system, BlinkMacSystemFont, Segoe UI, sans-serif" font-size="12" fill="#57606a">60.1%</text>
  <circle cx="206" cy="129" r="5.5" fill="#76B900"/>
  <text x="220" y="134" font-family="-apple-system, BlinkMacSystemFont, Segoe UI, sans-serif" font-size="13" font-weight="600" fill="#24292f">CUDA</text>
  <text x="304" y="134" font-family="-apple-system, BlinkMacSystemFont, Segoe UI, sans-serif" font-size="12" fill="#57606a">20.3%</text>
  <circle cx="372" cy="129" r="5.5" fill="#f34b7d"/>
  <text x="386" y="134" font-family="-apple-system, BlinkMacSystemFont, Segoe UI, sans-serif" font-size="13" font-weight="600" fill="#24292f">C++</text>
  <text x="470" y="134" font-family="-apple-system, BlinkMacSystemFont, Segoe UI, sans-serif" font-size="12" fill="#57606a">8.9%</text>
  <circle cx="40" cy="169" r="5.5" fill="#f1e05a"/>
  <text x="54" y="174" font-family="-apple-system, BlinkMacSystemFont, Segoe UI, sans-serif" font-size="13" font-weight="600" fill="#24292f">JavaScript</text>
  <text x="138" y="174" font-family="-apple-system, BlinkMacSystemFont, Segoe UI, sans-serif" font-size="12" fill="#57606a">8.2%</text>
  <circle cx="206" cy="169" r="5.5" fill="#89e051"/>
  <text x="220" y="174" font-family="-apple-system, BlinkMacSystemFont, Segoe UI, sans-serif" font-size="13" font-weight="600" fill="#24292f">Shell</text>
  <text x="304" y="174" font-family="-apple-system, BlinkMacSystemFont, Segoe UI, sans-serif" font-size="12" fill="#57606a">2.1%</text>
  <circle cx="372" cy="169" r="5.5" fill="#8b949e"/>
  <text x="386" y="174" font-family="-apple-system, BlinkMacSystemFont, Segoe UI, sans-serif" font-size="13" font-weight="600" fill="#24292f">Other</text>
  <text x="470" y="174" font-family="-apple-system, BlinkMacSystemFont, Segoe UI, sans-serif" font-size="12" fill="#57606a">0.4%</text>
  <text x="30" y="232" font-family="-apple-system, BlinkMacSystemFont, Segoe UI, sans-serif" font-size="9.5" fill="#57606a">Repos counted: 5 · Forks, archived repositories, and the profile repository are excluded.</text>
</svg>