<svg xmlns="http://www.w3.org/2000/svg" width="700" height="270" viewBox="0 0 700 270">
  <defs>
    <clipPath id="bar-clip-dark">
      <rect x="30" y="84" width="640" height="16" rx="8" ry="8" />
    </clipPath>
  </defs>
  <rect x="0.5" y="0.5" width="699" height="269" rx="12" fill="#0d1117" stroke="#30363d" />
  <text x="30" y="38" font-family="Georgia, Times New Roman, serif" font-size="25" fill="#58a6ff">Core Repository Languages</text>
  <text x="30" y="60" font-family="-apple-system, BlinkMacSystemFont, Segoe UI, sans-serif" font-size="12" fill="#8b949e">Owned public non-fork repositories · GitHub language bytes</text>
  <rect x="30" y="84" width="640" height="16" rx="8" ry="8" fill="#161b22" stroke="#30363d" />
  <g clip-path="url(#bar-clip-dark)">
    <rect x="30.00" y="84" width="384.54" height="16" fill="#3572A5" />
    <rect x="414.54" y="84" width="129.87" height="16" fill="#76B900" />
    <rect x="544.41" y="84" width="57.07" height="16" fill="#f34b7d" />
    <rect x="601.48" y="84" width="52.53" height="16" fill="#f1e05a" />
    <rect x="654.00" y="84" width="16.00" height="16" fill="#8b949e" />
  </g>
  <circle cx="37" cy="135" r="6" fill="#3572A5" />
  <text x="54" y="140" font-family="-apple-system, BlinkMacSystemFont, Segoe UI, sans-serif" font-size="16" font-weight="600" fill="#c9d1d9">Python</text>
  <text x="175" y="140" font-family="-apple-system, BlinkMacSystemFont, Segoe UI, sans-serif" font-size="15" fill="#8b949e">60.1%</text>
  <circle cx="272" cy="135" r="6" fill="#76B900" />
  <text x="289" y="140" font-family="-apple-system, BlinkMacSystemFont, Segoe UI, sans-serif" font-size="16" font-weight="600" fill="#c9d1d9">CUDA</text>
  <text x="410" y="140" font-family="-apple-system, BlinkMacSystemFont, Segoe UI, sans-serif" font-size="15" fill="#8b949e">20.3%</text>
  <circle cx="507" cy="135" r="6" fill="#f34b7d" />
  <text x="524" y="140" font-family="-apple-system, BlinkMacSystemFont, Segoe UI, sans-serif" font-size="16" font-weight="600" fill="#c9d1d9">C++</text>
  <text x="645" y="140" font-family="-apple-system, BlinkMacSystemFont, Segoe UI, sans-serif" font-size="15" fill="#8b949e">8.9%</text>
  <circle cx="37" cy="177" r="6" fill="#f1e05a" />
  <text x="54" y="182" font-family="-apple-system, BlinkMacSystemFont, Segoe UI, sans-serif" font-size="16" font-weight="600" fill="#c9d1d9">JavaScript</text>
  <text x="175" y="182" font-family="-apple-system, BlinkMacSystemFont, Segoe UI, sans-serif" font-size="15" fill="#8b949e">8.2%</text>
  <circle cx="272" cy="177" r="6" fill="#8b949e" />
  <text x="289" y="182" font-family="-apple-system, BlinkMacSystemFont, Segoe UI, sans-serif" font-size="16" font-weight="600" fill="#c9d1d9">Other</text>
  <text x="410" y="182" font-family="-apple-system, BlinkMacSystemFont, Segoe UI, sans-serif" font-size="15" fill="#8b949e">2.5%</text>
  <text x="30" y="250" font-family="-apple-system, BlinkMacSystemFont, Segoe UI, sans-serif" font-size="11" fill="#8b949e">Repos counted: 5 · Forks and the profile repository are excluded.</text>
</svg>