<?xml version="1.0" encoding="UTF-8"?>
<svg width="495" height="235" viewBox="0 0 495 235" fill="none" xmlns="http://www.w3.org/2000/svg">
  <rect x="0.5" y="0.5" width="494" height="234" rx="12" ry="12"
        fill="#ffffff" stroke="#d0d7de"/>

  <text x="24" y="34" font-size="18" font-weight="600" fill="#0969da">Core Repository Languages</text>
  <text x="24" y="54" font-size="10.5" fill="#6e7781">Owned public non-fork repositories · GitHub language bytes</text>

  <defs>
    <clipPath id="barclip-light">
      <rect x="34" y="78" width="427" height="12" rx="6" ry="6" />
    </clipPath>
  </defs>

  <rect x="34" y="78" width="427" height="12" rx="6" ry="6" fill="#eaeef2" />
  <g clip-path="url(#barclip-light)">
    <rect x="34.000" y="78" width="254.440" height="12" fill="#3572A5" /><rect x="288.440" y="78" width="85.517" height="12" fill="#76B900" /><rect x="373.958" y="78" width="36.912" height="12" fill="#f34b7d" /><rect x="410.870" y="78" width="33.973" height="12" fill="#f1e05a" /><rect x="444.842" y="78" width="14.432" height="12" fill="#89e051" /><rect x="459.275" y="78" width="1.725" height="12" fill="#8b949e" />
  </g>

  
            <g transform="translate(44,120)">
              <circle cx="0" cy="0" r="6.5" fill="#3572A5" />
              <text x="16" y="4" font-size="11" font-weight="600" fill="#24292f">Python</text>
              <text x="70" y="4" font-size="11" fill="#57606a">59.6%</text>
            </g>
            
            <g transform="translate(179,120)">
              <circle cx="0" cy="0" r="6.5" fill="#76B900" />
              <text x="16" y="4" font-size="11" font-weight="600" fill="#24292f">CUDA</text>
              <text x="70" y="4" font-size="11" fill="#57606a">20.0%</text>
            </g>
            
            <g transform="translate(314,120)">
              <circle cx="0" cy="0" r="6.5" fill="#f34b7d" />
              <text x="16" y="4" font-size="11" font-weight="600" fill="#24292f">C++</text>
              <text x="70" y="4" font-size="11" fill="#57606a">8.6%</text>
            </g>
            
            <g transform="translate(44,158)">
              <circle cx="0" cy="0" r="6.5" fill="#f1e05a" />
              <text x="16" y="4" font-size="11" font-weight="600" fill="#24292f">JavaScript</text>
              <text x="70" y="4" font-size="11" fill="#57606a">8.0%</text>
            </g>
            
            <g transform="translate(179,158)">
              <circle cx="0" cy="0" r="6.5" fill="#89e051" />
              <text x="16" y="4" font-size="11" font-weight="600" fill="#24292f">Shell</text>
              <text x="70" y="4" font-size="11" fill="#57606a">3.4%</text>
            </g>
            
            <g transform="translate(314,158)">
              <circle cx="0" cy="0" r="6.5" fill="#8b949e" />
              <text x="16" y="4" font-size="11" font-weight="600" fill="#24292f">Other</text>
              <text x="70" y="4" font-size="11" fill="#57606a">0.4%</text>
            </g>
            

  <text x="24" y="214" font-size="10" fill="#6e7781">Repos counted: 5 · Forks, archived repositories, and the profile repository are excluded.</text>
</svg>
