<?xml version="1.0" encoding="UTF-8"?>
<svg width="390" height="200" viewBox="0 0 390 200" fill="none" xmlns="http://www.w3.org/2000/svg">
  <rect x="0.5" y="0.5" width="389" height="199" rx="12" ry="12"
        fill="#0d1117" stroke="#30363d"/>

  <text x="22" y="33" font-size="20" font-weight="600" fill="#2f81f7">Core Repository Languages</text>
  <text x="22" y="51" font-size="10.5" fill="#8b949e">Owned public non-fork repositories · GitHub language bytes</text>

  <defs>
    <clipPath id="barclip-dark">
      <rect x="28" y="70" width="334" height="10" rx="5" ry="5" />
    </clipPath>
  </defs>

  <rect x="28" y="70" width="334" height="10" rx="5" ry="5" fill="#21262d" />
  <g clip-path="url(#barclip-dark)">
    <rect x="28.000" y="70" width="199.023" height="10" fill="#3572A5" /><rect x="227.023" y="70" width="66.892" height="10" fill="#76B900" /><rect x="293.915" y="70" width="28.873" height="10" fill="#f34b7d" /><rect x="322.788" y="70" width="26.574" height="10" fill="#f1e05a" /><rect x="349.362" y="70" width="11.289" height="10" fill="#89e051" /><rect x="360.651" y="70" width="1.349" height="10" fill="#8b949e" />
  </g>

  
            <g transform="translate(38,108)">
              <circle cx="0" cy="0" r="5.5" fill="#3572A5" />
              <text x="14" y="3.5" font-size="10.5" font-weight="600" fill="#c9d1d9">Python</text>
              <text x="72" y="3.5" font-size="10.5" fill="#8b949e">59.6%</text>
            </g>
            
            <g transform="translate(146,108)">
              <circle cx="0" cy="0" r="5.5" fill="#76B900" />
              <text x="14" y="3.5" font-size="10.5" font-weight="600" fill="#c9d1d9">CUDA</text>
              <text x="72" y="3.5" font-size="10.5" fill="#8b949e">20.0%</text>
            </g>
            
            <g transform="translate(254,108)">
              <circle cx="0" cy="0" r="5.5" fill="#f34b7d" />
              <text x="14" y="3.5" font-size="10.5" font-weight="600" fill="#c9d1d9">C++</text>
              <text x="72" y="3.5" font-size="10.5" fill="#8b949e">8.6%</text>
            </g>
            
            <g transform="translate(38,138)">
              <circle cx="0" cy="0" r="5.5" fill="#f1e05a" />
              <text x="14" y="3.5" font-size="10.5" font-weight="600" fill="#c9d1d9">JavaScript</text>
              <text x="72" y="3.5" font-size="10.5" fill="#8b949e">8.0%</text>
            </g>
            
            <g transform="translate(146,138)">
              <circle cx="0" cy="0" r="5.5" fill="#89e051" />
              <text x="14" y="3.5" font-size="10.5" font-weight="600" fill="#c9d1d9">Shell</text>
              <text x="72" y="3.5" font-size="10.5" fill="#8b949e">3.4%</text>
            </g>
            
            <g transform="translate(254,138)">
              <circle cx="0" cy="0" r="5.5" fill="#8b949e" />
              <text x="14" y="3.5" font-size="10.5" font-weight="600" fill="#c9d1d9">Other</text>
              <text x="72" y="3.5" font-size="10.5" fill="#8b949e">0.4%</text>
            </g>
            

  <text x="22" y="181" font-size="9.5" fill="#8b949e">Repos counted: 5 · Forks, archived repositories, and the profile repository are excluded.</text>
</svg>
