<svg xmlns="http://www.w3.org/2000/svg" width="340" height="200" viewBox="0 0 340 200">
<style>* { font-family: "Garamond Libre Profile Cards", "Garamond Libre", Georgia, serif; }</style>
<rect x="1" y="1" rx="5" ry="5" height="198" width="338" stroke="#d0d7de" stroke-width="1" fill="#ffffff" stroke-opacity="1"/>
<text x="30" y="40" style="font-size: 18px; font-weight: 600; fill: #0969da;">Own Repo Languages</text>
<rect x="40" y="60" width="14" height="14" rx="2" fill="#3572A5" stroke="#d0d7de" style="stroke-width: 1px;"/>
<text x="62" y="72" style="fill: #24292f; font-size: 14px;">Python</text>
<rect x="40" y="82" width="14" height="14" rx="2" fill="#f34b7d" stroke="#d0d7de" style="stroke-width: 1px;"/>
<text x="62" y="94" style="fill: #24292f; font-size: 14px;">C++</text>
<rect x="40" y="104" width="14" height="14" rx="2" fill="#3A4E3A" stroke="#d0d7de" style="stroke-width: 1px;"/>
<text x="62" y="116" style="fill: #24292f; font-size: 14px;">Cuda</text>
<rect x="40" y="126" width="14" height="14" rx="2" fill="#f1e05a" stroke="#d0d7de" style="stroke-width: 1px;"/>
<text x="62" y="138" style="fill: #24292f; font-size: 14px;">JavaScript</text>
<rect x="40" y="148" width="14" height="14" rx="2" fill="#292929" stroke="#d0d7de" style="stroke-width: 1px;"/>
<text x="62" y="160" style="fill: #24292f; font-size: 14px;">JSON</text>
<rect x="40" y="170" width="14" height="14" rx="2" fill="#6e7681" stroke="#d0d7de" style="stroke-width: 1px;"/>
<text x="62" y="182" style="fill: #24292f; font-size: 14px;">Other</text>
<path d="M238.000,54.000 A58.000,58.000,0,1,1,229.458,169.368 L232.993,145.629 A34.000,34.000,0,1,0,238.000,78.000 Z" style="fill: #3572A5; stroke-width: 2px;" stroke="#d0d7de"/>
<path d="M229.458,169.368 A58.000,58.000,0,0,1,180.397,105.225 L204.233,108.029 A34.000,34.000,0,0,0,232.993,145.629 Z" style="fill: #f34b7d; stroke-width: 2px;" stroke="#d0d7de"/>
<path d="M180.397,105.225 A58.000,58.000,0,0,1,191.746,77.006 L210.886,91.486 A34.000,34.000,0,0,0,204.233,108.029 Z" style="fill: #3A4E3A; stroke-width: 2px;" stroke="#d0d7de"/>
<path d="M191.746,77.006 A58.000,58.000,0,0,1,202.695,65.983 L217.304,85.025 A34.000,34.000,0,0,0,210.886,91.486 Z" style="fill: #f1e05a; stroke-width: 2px;" stroke="#d0d7de"/>
<path d="M202.695,65.983 A58.000,58.000,0,0,1,212.236,60.036 L222.897,81.539 A34.000,34.000,0,0,0,217.304,85.025 Z" style="fill: #292929; stroke-width: 2px;" stroke="#d0d7de"/>
<path d="M212.236,60.036 A58.000,58.000,0,0,1,238.000,54.000 L238.000,78.000 A34.000,34.000,0,0,0,222.897,81.539 Z" style="fill: #6e7681; stroke-width: 2px;" stroke="#d0d7de"/>
</svg>
