<svg xmlns="http://www.w3.org/2000/svg" width="340" height="200" viewBox="0 0 340 200">
<style>* { font-family: "Garamond Libre Profile Cards", "Garamond Libre", Georgia, serif; }</style>
<rect x="1" y="1" rx="5" ry="5" height="198" width="338" stroke="#30363d" stroke-width="1" fill="#0d1117" stroke-opacity="1"/>
<text x="30" y="40" style="font-size: 18px; font-weight: 600; fill: #2f81f7;">Own Repo Languages</text>
<rect x="40" y="60" width="14" height="14" rx="2" fill="#3572A5" stroke="#30363d" style="stroke-width: 1px;"/>
<text x="62" y="72" style="fill: #c9d1d9; font-size: 14px;">Python</text>
<rect x="40" y="82" width="14" height="14" rx="2" fill="#3A4E3A" stroke="#30363d" style="stroke-width: 1px;"/>
<text x="62" y="94" style="fill: #c9d1d9; font-size: 14px;">Cuda</text>
<rect x="40" y="104" width="14" height="14" rx="2" fill="#6e7681" stroke="#30363d" style="stroke-width: 1px;"/>
<text x="62" y="116" style="fill: #c9d1d9; font-size: 14px;">Other</text>
<rect x="40" y="126" width="14" height="14" rx="2" fill="#f34b7d" stroke="#30363d" style="stroke-width: 1px;"/>
<text x="62" y="138" style="fill: #c9d1d9; font-size: 14px;">C++</text>
<rect x="40" y="148" width="14" height="14" rx="2" fill="#f1e05a" stroke="#30363d" style="stroke-width: 1px;"/>
<text x="62" y="160" style="fill: #c9d1d9; font-size: 14px;">JavaScript</text>
<rect x="40" y="170" width="14" height="14" rx="2" fill="#6e7681" stroke="#30363d" style="stroke-width: 1px;"/>
<text x="62" y="182" style="fill: #c9d1d9; font-size: 14px;">Other</text>
<path d="M238.000,54.000 A58.000,58.000,0,1,1,207.603,161.396 L220.181,140.956 A34.000,34.000,0,1,0,238.000,78.000 Z" style="fill: #3572A5; stroke-width: 2px;" stroke="#30363d"/>
<path d="M207.603,161.396 A58.000,58.000,0,0,1,183.372,131.488 L205.977,123.424 A34.000,34.000,0,0,0,220.181,140.956 Z" style="fill: #3A4E3A; stroke-width: 2px;" stroke="#30363d"/>
<path d="M183.372,131.488 A58.000,58.000,0,0,1,180.816,102.307 L204.478,106.318 A34.000,34.000,0,0,0,205.977,123.424 Z" style="fill: #6e7681; stroke-width: 2px;" stroke="#30363d"/>
<path d="M180.816,102.307 A58.000,58.000,0,0,1,187.778,82.987 L208.560,94.992 A34.000,34.000,0,0,0,204.478,106.318 Z" style="fill: #f34b7d; stroke-width: 2px;" stroke="#30363d"/>
<path d="M187.778,82.987 A58.000,58.000,0,0,1,200.441,67.804 L215.983,86.092 A34.000,34.000,0,0,0,208.560,94.992 Z" style="fill: #f1e05a; stroke-width: 2px;" stroke="#30363d"/>
<path d="M200.441,67.804 A58.000,58.000,0,0,1,238.000,54.000 L238.000,78.000 A34.000,34.000,0,0,0,215.983,86.092 Z" style="fill: #6e7681; stroke-width: 2px;" stroke="#30363d"/>
</svg>
