<svg xmlns="http://www.w3.org/2000/svg" width="340" height="200" viewBox="0 0 340 200">
<style>* { font-family: "Garamond Libre Profile Cards", "Garamond Libre", Georgia, serif; }</style>
<rect x="1" y="1" rx="5" ry="5" height="198" width="338" stroke="#d0d7de" stroke-width="1" fill="#ffffff" stroke-opacity="1"/>
<text x="30" y="40" style="font-size: 18px; font-weight: 600; fill: #0969da;">Own Repo Languages</text>
<rect x="40" y="60" width="14" height="14" rx="2" fill="#3572A5" stroke="#d0d7de" style="stroke-width: 1px;"/>
<text x="62" y="72" style="fill: #24292f; font-size: 14px;">Python</text>
<rect x="40" y="82" width="14" height="14" rx="2" fill="#f34b7d" stroke="#d0d7de" style="stroke-width: 1px;"/>
<text x="62" y="94" style="fill: #24292f; font-size: 14px;">C++</text>
<rect x="40" y="104" width="14" height="14" rx="2" fill="#3A4E3A" stroke="#d0d7de" style="stroke-width: 1px;"/>
<text x="62" y="116" style="fill: #24292f; font-size: 14px;">Cuda</text>
<rect x="40" y="126" width="14" height="14" rx="2" fill="#f1e05a" stroke="#d0d7de" style="stroke-width: 1px;"/>
<text x="62" y="138" style="fill: #24292f; font-size: 14px;">JavaScript</text>
<rect x="40" y="148" width="14" height="14" rx="2" fill="#292929" stroke="#d0d7de" style="stroke-width: 1px;"/>
<text x="62" y="160" style="fill: #24292f; font-size: 14px;">JSON</text>
<rect x="40" y="170" width="14" height="14" rx="2" fill="#6e7681" stroke="#d0d7de" style="stroke-width: 1px;"/>
<text x="62" y="182" style="fill: #24292f; font-size: 14px;">Other</text>
<path d="M238.000,54.000 A58.000,58.000,0,1,1,232.722,169.759 L234.906,145.859 A34.000,34.000,0,1,0,238.000,78.000 Z" style="fill: #3572A5; stroke-width: 2px;" stroke="#d0d7de"/>
<path d="M232.722,169.759 A58.000,58.000,0,0,1,180.027,113.781 L204.016,113.044 A34.000,34.000,0,0,0,234.906,145.859 Z" style="fill: #f34b7d; stroke-width: 2px;" stroke="#d0d7de"/>
<path d="M180.027,113.781 A58.000,58.000,0,0,1,186.250,85.809 L207.664,96.647 A34.000,34.000,0,0,0,204.016,113.044 Z" style="fill: #3A4E3A; stroke-width: 2px;" stroke="#d0d7de"/>
<path d="M186.250,85.809 A58.000,58.000,0,0,1,197.515,70.467 L214.268,87.653 A34.000,34.000,0,0,0,207.664,96.647 Z" style="fill: #f1e05a; stroke-width: 2px;" stroke="#d0d7de"/>
<path d="M197.515,70.467 A58.000,58.000,0,0,1,206.212,63.487 L219.365,83.561 A34.000,34.000,0,0,0,214.268,87.653 Z" style="fill: #292929; stroke-width: 2px;" stroke="#d0d7de"/>
<path d="M206.212,63.487 A58.000,58.000,0,0,1,238.000,54.000 L238.000,78.000 A34.000,34.000,0,0,0,219.365,83.561 Z" style="fill: #6e7681; stroke-width: 2px;" stroke="#d0d7de"/>
</svg>
