<svg xmlns="http://www.w3.org/2000/svg" width="340" height="200" viewBox="0 0 340 200">
<style>* { font-family: "Garamond Libre Profile Cards", "Garamond Libre", Georgia, serif; }</style>
<rect x="1" y="1" rx="5" ry="5" height="198" width="338" stroke="#d0d7de" stroke-width="1" fill="#ffffff" stroke-opacity="1"/>
<text x="30" y="40" style="font-size: 18px; font-weight: 600; fill: #0969da;">Own Repo Languages</text>
<rect x="40" y="60" width="14" height="14" rx="2" fill="#3572A5" stroke="#d0d7de" style="stroke-width: 1px;"/>
<text x="62" y="72" style="fill: #24292f; font-size: 14px;">Python</text>
<rect x="40" y="82" width="14" height="14" rx="2" fill="#f34b7d" stroke="#d0d7de" style="stroke-width: 1px;"/>
<text x="62" y="94" style="fill: #24292f; font-size: 14px;">C++</text>
<rect x="40" y="104" width="14" height="14" rx="2" fill="#3A4E3A" stroke="#d0d7de" style="stroke-width: 1px;"/>
<text x="62" y="116" style="fill: #24292f; font-size: 14px;">Cuda</text>
<rect x="40" y="126" width="14" height="14" rx="2" fill="#f1e05a" stroke="#d0d7de" style="stroke-width: 1px;"/>
<text x="62" y="138" style="fill: #24292f; font-size: 14px;">JavaScript</text>
<rect x="40" y="148" width="14" height="14" rx="2" fill="#292929" stroke="#d0d7de" style="stroke-width: 1px;"/>
<text x="62" y="160" style="fill: #24292f; font-size: 14px;">JSON</text>
<rect x="40" y="170" width="14" height="14" rx="2" fill="#6e7681" stroke="#d0d7de" style="stroke-width: 1px;"/>
<text x="62" y="182" style="fill: #24292f; font-size: 14px;">Other</text>
<path d="M238.000,54.000 A58.000,58.000,0,1,1,229.129,169.318 L232.800,145.600 A34.000,34.000,0,1,0,238.000,78.000 Z" style="fill: #3572A5; stroke-width: 2px;" stroke="#d0d7de"/>
<path d="M229.129,169.318 A58.000,58.000,0,0,1,180.383,105.347 L204.224,108.100 A34.000,34.000,0,0,0,232.800,145.600 Z" style="fill: #f34b7d; stroke-width: 2px;" stroke="#d0d7de"/>
<path d="M180.383,105.347 A58.000,58.000,0,0,1,191.705,77.061 L210.861,91.519 A34.000,34.000,0,0,0,204.224,108.100 Z" style="fill: #3A4E3A; stroke-width: 2px;" stroke="#d0d7de"/>
<path d="M191.705,77.061 A58.000,58.000,0,0,1,202.662,66.008 L217.285,85.039 A34.000,34.000,0,0,0,210.861,91.519 Z" style="fill: #f1e05a; stroke-width: 2px;" stroke="#d0d7de"/>
<path d="M202.662,66.008 A58.000,58.000,0,0,1,212.216,60.046 L222.885,81.544 A34.000,34.000,0,0,0,217.285,85.039 Z" style="fill: #292929; stroke-width: 2px;" stroke="#d0d7de"/>
<path d="M212.216,60.046 A58.000,58.000,0,0,1,238.000,54.000 L238.000,78.000 A34.000,34.000,0,0,0,222.885,81.544 Z" style="fill: #6e7681; stroke-width: 2px;" stroke="#d0d7de"/>
</svg>
